# xmcd
#
# Track frame offsets: 
#        150
#        18260
#        33860
#        55175
#        77529
#        99460
#        121022
#
# Disc length: 1862 seconds
#
# Revision: 1
# Processed by: cddbd v1.5.2PL0 Copyright (c) Steve Scherf et al.
# Submitted via: ExactAudioCopy v1.0b3
#
DISCID=42074407
DTITLE=Puffy - amiyumi
DYEAR=1996
DGENRE=JPop
TTITLE0=とくするからだ
TTITLE1=ウサギチャンネル
TTITLE2=サクラサク
TTITLE3=Simple
TTITLE4=長生きしてね
TTITLE5=アジアの純真
TTITLE6=パフィーのHey! Mountain
EXTD=
EXTT0=
EXTT1=
EXTT2=
EXTT3=
EXTT4=
EXTT5=
EXTT6=
PLAYORDER=
